<mxfile host="app.diagrams.net" modified="2024-05-23T07:13:30.568Z" agent="Mozilla/5.0 (Macintosh; Intel Mac OS X 10_15_7) AppleWebKit/537.36 (KHTML, like Gecko) Chrome/124.0.0.0 Safari/537.36" etag="KyAtOiW6yTFEE6o7j39i" version="24.4.6" type="github">
  <diagram name="ページ1" id="qjdGEbdjUFa_eJl8wLjm">
    <mxGraphModel dx="1434" dy="786" grid="1" gridSize="10" guides="1" tooltips="1" connect="1" arrows="1" fold="1" page="1" pageScale="1" pageWidth="827" pageHeight="1169" math="0" shadow="0">
      <root>
        <mxCell id="0" />
        <mxCell id="1" parent="0" />
        <mxCell id="tNj1nO10mMJgsr6okV-b-1" value="Public subnet" style="points=[[0,0],[0.25,0],[0.5,0],[0.75,0],[1,0],[1,0.25],[1,0.5],[1,0.75],[1,1],[0.75,1],[0.5,1],[0.25,1],[0,1],[0,0.75],[0,0.5],[0,0.25]];outlineConnect=0;gradientColor=none;html=1;whiteSpace=wrap;fontSize=12;fontStyle=0;container=1;pointerEvents=0;collapsible=0;recursiveResize=0;shape=mxgraph.aws4.group;grIcon=mxgraph.aws4.group_security_group;grStroke=0;strokeColor=#248814;fillColor=#E9F3E6;verticalAlign=top;align=left;spacingLeft=30;fontColor=#248814;dashed=0;" vertex="1" parent="1">
          <mxGeometry x="490" y="272" width="240" height="140" as="geometry" />
        </mxCell>
        <mxCell id="tNj1nO10mMJgsr6okV-b-2" value="" style="sketch=0;outlineConnect=0;fontColor=#232F3E;gradientColor=none;fillColor=#4D27AA;strokeColor=none;dashed=0;verticalLabelPosition=bottom;verticalAlign=top;align=center;html=1;fontSize=12;fontStyle=0;aspect=fixed;pointerEvents=1;shape=mxgraph.aws4.nat_gateway;" vertex="1" parent="tNj1nO10mMJgsr6okV-b-1">
          <mxGeometry x="90" y="40" width="59" height="59" as="geometry" />
        </mxCell>
        <mxCell id="tNj1nO10mMJgsr6okV-b-3" value="NAT Gateway" style="text;html=1;strokeColor=none;fillColor=none;align=center;verticalAlign=middle;whiteSpace=wrap;rounded=0;" vertex="1" parent="tNj1nO10mMJgsr6okV-b-1">
          <mxGeometry x="90" y="99" width="60" height="30" as="geometry" />
        </mxCell>
        <mxCell id="tNj1nO10mMJgsr6okV-b-4" value="AWS Cloud" style="points=[[0,0],[0.25,0],[0.5,0],[0.75,0],[1,0],[1,0.25],[1,0.5],[1,0.75],[1,1],[0.75,1],[0.5,1],[0.25,1],[0,1],[0,0.75],[0,0.5],[0,0.25]];outlineConnect=0;gradientColor=none;html=1;whiteSpace=wrap;fontSize=12;fontStyle=0;shape=mxgraph.aws4.group;grIcon=mxgraph.aws4.group_aws_cloud_alt;strokeColor=#232F3E;fillColor=none;verticalAlign=top;align=left;spacingLeft=30;fontColor=#232F3E;dashed=0;labelBackgroundColor=#ffffff;container=1;pointerEvents=0;collapsible=0;recursiveResize=0;" vertex="1" parent="1">
          <mxGeometry x="50" y="80" width="780" height="610" as="geometry" />
        </mxCell>
        <mxCell id="tNj1nO10mMJgsr6okV-b-5" value="VPC" style="points=[[0,0],[0.25,0],[0.5,0],[0.75,0],[1,0],[1,0.25],[1,0.5],[1,0.75],[1,1],[0.75,1],[0.5,1],[0.25,1],[0,1],[0,0.75],[0,0.5],[0,0.25]];outlineConnect=0;gradientColor=none;html=1;whiteSpace=wrap;fontSize=12;fontStyle=0;container=1;pointerEvents=0;collapsible=0;recursiveResize=0;shape=mxgraph.aws4.group;grIcon=mxgraph.aws4.group_vpc;strokeColor=#248814;fillColor=none;verticalAlign=top;align=left;spacingLeft=30;fontColor=#AAB7B8;dashed=0;" vertex="1" parent="tNj1nO10mMJgsr6okV-b-4">
          <mxGeometry x="70" y="80" width="650" height="520" as="geometry" />
        </mxCell>
        <mxCell id="tNj1nO10mMJgsr6okV-b-6" value="Private subnet" style="points=[[0,0],[0.25,0],[0.5,0],[0.75,0],[1,0],[1,0.25],[1,0.5],[1,0.75],[1,1],[0.75,1],[0.5,1],[0.25,1],[0,1],[0,0.75],[0,0.5],[0,0.25]];outlineConnect=0;gradientColor=none;html=1;whiteSpace=wrap;fontSize=12;fontStyle=0;container=1;pointerEvents=0;collapsible=0;recursiveResize=0;shape=mxgraph.aws4.group;grIcon=mxgraph.aws4.group_security_group;grStroke=0;strokeColor=#147EBA;fillColor=#E6F2F8;verticalAlign=top;align=left;spacingLeft=30;fontColor=#147EBA;dashed=0;" vertex="1" parent="tNj1nO10mMJgsr6okV-b-5">
          <mxGeometry x="370" y="272" width="240" height="160" as="geometry" />
        </mxCell>
        <mxCell id="tNj1nO10mMJgsr6okV-b-7" value="" style="sketch=0;outlineConnect=0;fontColor=#232F3E;gradientColor=none;fillColor=#ED7100;strokeColor=none;dashed=0;verticalLabelPosition=bottom;verticalAlign=top;align=center;html=1;fontSize=12;fontStyle=0;aspect=fixed;pointerEvents=1;shape=mxgraph.aws4.c5_instance;" vertex="1" parent="tNj1nO10mMJgsr6okV-b-6">
          <mxGeometry x="95.5" y="44" width="48" height="48" as="geometry" />
        </mxCell>
        <mxCell id="tNj1nO10mMJgsr6okV-b-8" value="EC2&lt;br&gt;Instance" style="text;html=1;strokeColor=none;fillColor=none;align=center;verticalAlign=middle;whiteSpace=wrap;rounded=0;" vertex="1" parent="tNj1nO10mMJgsr6okV-b-6">
          <mxGeometry x="90" y="100" width="60" height="30" as="geometry" />
        </mxCell>
        <mxCell id="tNj1nO10mMJgsr6okV-b-9" value="Private subnet" style="points=[[0,0],[0.25,0],[0.5,0],[0.75,0],[1,0],[1,0.25],[1,0.5],[1,0.75],[1,1],[0.75,1],[0.5,1],[0.25,1],[0,1],[0,0.75],[0,0.5],[0,0.25]];outlineConnect=0;gradientColor=none;html=1;whiteSpace=wrap;fontSize=12;fontStyle=0;container=1;pointerEvents=0;collapsible=0;recursiveResize=0;shape=mxgraph.aws4.group;grIcon=mxgraph.aws4.group_security_group;grStroke=0;strokeColor=#147EBA;fillColor=#E6F2F8;verticalAlign=top;align=left;spacingLeft=30;fontColor=#147EBA;dashed=0;" vertex="1" parent="tNj1nO10mMJgsr6okV-b-5">
          <mxGeometry x="40" y="272" width="240" height="160" as="geometry" />
        </mxCell>
        <mxCell id="tNj1nO10mMJgsr6okV-b-10" value="" style="sketch=0;outlineConnect=0;fontColor=#232F3E;gradientColor=none;fillColor=#ED7100;strokeColor=none;dashed=0;verticalLabelPosition=bottom;verticalAlign=top;align=center;html=1;fontSize=12;fontStyle=0;aspect=fixed;pointerEvents=1;shape=mxgraph.aws4.c5_instance;" vertex="1" parent="tNj1nO10mMJgsr6okV-b-9">
          <mxGeometry x="96" y="44" width="48" height="48" as="geometry" />
        </mxCell>
        <mxCell id="tNj1nO10mMJgsr6okV-b-11" value="EC2&lt;br&gt;Instance" style="text;html=1;strokeColor=none;fillColor=none;align=center;verticalAlign=middle;whiteSpace=wrap;rounded=0;" vertex="1" parent="tNj1nO10mMJgsr6okV-b-9">
          <mxGeometry x="90" y="100" width="60" height="30" as="geometry" />
        </mxCell>
        <mxCell id="tNj1nO10mMJgsr6okV-b-12" value="Public subnet" style="points=[[0,0],[0.25,0],[0.5,0],[0.75,0],[1,0],[1,0.25],[1,0.5],[1,0.75],[1,1],[0.75,1],[0.5,1],[0.25,1],[0,1],[0,0.75],[0,0.5],[0,0.25]];outlineConnect=0;gradientColor=none;html=1;whiteSpace=wrap;fontSize=12;fontStyle=0;container=1;pointerEvents=0;collapsible=0;recursiveResize=0;shape=mxgraph.aws4.group;grIcon=mxgraph.aws4.group_security_group;grStroke=0;strokeColor=#248814;fillColor=#E9F3E6;verticalAlign=top;align=left;spacingLeft=30;fontColor=#248814;dashed=0;" vertex="1" parent="tNj1nO10mMJgsr6okV-b-5">
          <mxGeometry x="40" y="112" width="240" height="140" as="geometry" />
        </mxCell>
        <mxCell id="tNj1nO10mMJgsr6okV-b-13" value="" style="sketch=0;outlineConnect=0;fontColor=#232F3E;gradientColor=none;fillColor=#4D27AA;strokeColor=none;dashed=0;verticalLabelPosition=bottom;verticalAlign=top;align=center;html=1;fontSize=12;fontStyle=0;aspect=fixed;pointerEvents=1;shape=mxgraph.aws4.nat_gateway;" vertex="1" parent="tNj1nO10mMJgsr6okV-b-12">
          <mxGeometry x="90" y="40" width="59" height="59" as="geometry" />
        </mxCell>
        <mxCell id="tNj1nO10mMJgsr6okV-b-14" value="NAT Gateway" style="text;html=1;strokeColor=none;fillColor=none;align=center;verticalAlign=middle;whiteSpace=wrap;rounded=0;" vertex="1" parent="tNj1nO10mMJgsr6okV-b-12">
          <mxGeometry x="90" y="99" width="60" height="30" as="geometry" />
        </mxCell>
        <mxCell id="tNj1nO10mMJgsr6okV-b-15" value="" style="sketch=0;outlineConnect=0;fontColor=#232F3E;gradientColor=none;fillColor=#8C4FFF;strokeColor=none;dashed=0;verticalLabelPosition=bottom;verticalAlign=top;align=center;html=1;fontSize=12;fontStyle=0;aspect=fixed;pointerEvents=1;shape=mxgraph.aws4.application_load_balancer;" vertex="1" parent="tNj1nO10mMJgsr6okV-b-5">
          <mxGeometry x="296" y="60" width="46" height="46" as="geometry" />
        </mxCell>
        <mxCell id="tNj1nO10mMJgsr6okV-b-16" value="Application Load Balancer" style="text;html=1;strokeColor=none;fillColor=none;align=center;verticalAlign=middle;whiteSpace=wrap;rounded=0;" vertex="1" parent="tNj1nO10mMJgsr6okV-b-5">
          <mxGeometry x="289" y="108" width="60" height="30" as="geometry" />
        </mxCell>
        <mxCell id="tNj1nO10mMJgsr6okV-b-17" value="" style="rounded=1;arcSize=10;dashed=1;fillColor=none;gradientColor=none;dashPattern=8 3 1 3;strokeWidth=2;" vertex="1" parent="tNj1nO10mMJgsr6okV-b-5">
          <mxGeometry x="50" y="302" width="550" height="120" as="geometry" />
        </mxCell>
        <mxCell id="tNj1nO10mMJgsr6okV-b-18" value="" style="sketch=0;outlineConnect=0;fontColor=#232F3E;gradientColor=none;fillColor=#ED7100;strokeColor=none;dashed=0;verticalLabelPosition=bottom;verticalAlign=top;align=center;html=1;fontSize=12;fontStyle=0;aspect=fixed;pointerEvents=1;shape=mxgraph.aws4.auto_scaling2;" vertex="1" parent="tNj1nO10mMJgsr6okV-b-5">
          <mxGeometry x="301" y="282" width="48" height="48" as="geometry" />
        </mxCell>
        <mxCell id="tNj1nO10mMJgsr6okV-b-19" value="EC2&lt;br&gt;AutoScaling" style="text;html=1;strokeColor=none;fillColor=none;align=center;verticalAlign=middle;whiteSpace=wrap;rounded=0;" vertex="1" parent="tNj1nO10mMJgsr6okV-b-5">
          <mxGeometry x="298" y="330" width="60" height="30" as="geometry" />
        </mxCell>
        <mxCell id="tNj1nO10mMJgsr6okV-b-20" value="" style="sketch=0;outlineConnect=0;fontColor=#232F3E;gradientColor=none;fillColor=#E7157B;strokeColor=none;dashed=0;verticalLabelPosition=bottom;verticalAlign=top;align=center;html=1;fontSize=12;fontStyle=0;aspect=fixed;pointerEvents=1;shape=mxgraph.aws4.alarm;" vertex="1" parent="tNj1nO10mMJgsr6okV-b-5">
          <mxGeometry x="303" y="432" width="50" height="50" as="geometry" />
        </mxCell>
        <mxCell id="tNj1nO10mMJgsr6okV-b-21" value="CloudWatch&lt;br&gt;Alarm" style="text;html=1;strokeColor=none;fillColor=none;align=center;verticalAlign=middle;whiteSpace=wrap;rounded=0;" vertex="1" parent="tNj1nO10mMJgsr6okV-b-5">
          <mxGeometry x="298" y="482" width="60" height="30" as="geometry" />
        </mxCell>
        <mxCell id="tNj1nO10mMJgsr6okV-b-22" style="edgeStyle=orthogonalEdgeStyle;rounded=0;orthogonalLoop=1;jettySize=auto;html=1;entryX=0.201;entryY=0.017;entryDx=0;entryDy=0;entryPerimeter=0;" edge="1" parent="tNj1nO10mMJgsr6okV-b-5" target="tNj1nO10mMJgsr6okV-b-17">
          <mxGeometry relative="1" as="geometry">
            <mxPoint x="319" y="137" as="sourcePoint" />
            <Array as="points">
              <mxPoint x="319" y="242" />
              <mxPoint x="161" y="242" />
            </Array>
          </mxGeometry>
        </mxCell>
        <mxCell id="tNj1nO10mMJgsr6okV-b-23" style="edgeStyle=orthogonalEdgeStyle;rounded=0;orthogonalLoop=1;jettySize=auto;html=1;entryX=0.797;entryY=0.006;entryDx=0;entryDy=0;entryPerimeter=0;" edge="1" parent="tNj1nO10mMJgsr6okV-b-5" target="tNj1nO10mMJgsr6okV-b-17">
          <mxGeometry relative="1" as="geometry">
            <mxPoint x="319" y="137" as="sourcePoint" />
            <Array as="points">
              <mxPoint x="319" y="242" />
              <mxPoint x="488" y="242" />
            </Array>
          </mxGeometry>
        </mxCell>
        <mxCell id="tNj1nO10mMJgsr6okV-b-24" value="" style="group" vertex="1" connectable="0" parent="tNj1nO10mMJgsr6okV-b-5">
          <mxGeometry x="30" y="80" width="260" height="350" as="geometry" />
        </mxCell>
        <mxCell id="tNj1nO10mMJgsr6okV-b-25" value="" style="group" vertex="1" connectable="0" parent="tNj1nO10mMJgsr6okV-b-24">
          <mxGeometry width="260" height="350" as="geometry" />
        </mxCell>
        <mxCell id="tNj1nO10mMJgsr6okV-b-26" value="" style="rounded=1;arcSize=10;dashed=1;strokeColor=#F59D56;fillColor=none;gradientColor=none;dashPattern=8 4;strokeWidth=2;" vertex="1" parent="tNj1nO10mMJgsr6okV-b-25">
          <mxGeometry width="260" height="350" as="geometry" />
        </mxCell>
        <mxCell id="tNj1nO10mMJgsr6okV-b-27" value="ap-northeast-1a" style="text;html=1;strokeColor=none;fillColor=none;align=center;verticalAlign=middle;whiteSpace=wrap;rounded=0;" vertex="1" parent="tNj1nO10mMJgsr6okV-b-25">
          <mxGeometry x="10" width="100" height="30" as="geometry" />
        </mxCell>
        <mxCell id="tNj1nO10mMJgsr6okV-b-28" value="" style="rounded=1;arcSize=10;dashed=1;strokeColor=#F59D56;fillColor=none;gradientColor=none;dashPattern=8 4;strokeWidth=2;" vertex="1" parent="tNj1nO10mMJgsr6okV-b-5">
          <mxGeometry x="358" y="82" width="260" height="350" as="geometry" />
        </mxCell>
        <mxCell id="tNj1nO10mMJgsr6okV-b-29" value="ap-northeast-1c" style="text;html=1;strokeColor=none;fillColor=none;align=center;verticalAlign=middle;whiteSpace=wrap;rounded=0;" vertex="1" parent="tNj1nO10mMJgsr6okV-b-5">
          <mxGeometry x="370" y="82" width="100" height="30" as="geometry" />
        </mxCell>
        <mxCell id="tNj1nO10mMJgsr6okV-b-30" value="" style="sketch=0;outlineConnect=0;fontColor=#232F3E;gradientColor=none;fillColor=#8C4FFF;strokeColor=none;dashed=0;verticalLabelPosition=bottom;verticalAlign=top;align=center;html=1;fontSize=12;fontStyle=0;aspect=fixed;pointerEvents=1;shape=mxgraph.aws4.internet_gateway;" vertex="1" parent="tNj1nO10mMJgsr6okV-b-5">
          <mxGeometry x="293" y="-20" width="50" height="50" as="geometry" />
        </mxCell>
        <mxCell id="tNj1nO10mMJgsr6okV-b-31" value="Internet Gateway" style="text;html=1;align=center;verticalAlign=middle;resizable=0;points=[];autosize=1;strokeColor=none;fillColor=none;" vertex="1" parent="tNj1nO10mMJgsr6okV-b-5">
          <mxGeometry x="267" y="20" width="110" height="30" as="geometry" />
        </mxCell>
        <mxCell id="tNj1nO10mMJgsr6okV-b-32" value="" style="endArrow=classic;html=1;rounded=0;" edge="1" parent="tNj1nO10mMJgsr6okV-b-5" target="tNj1nO10mMJgsr6okV-b-15">
          <mxGeometry width="50" height="50" relative="1" as="geometry">
            <mxPoint x="319" y="40" as="sourcePoint" />
            <mxPoint x="500" y="160" as="targetPoint" />
          </mxGeometry>
        </mxCell>
      </root>
    </mxGraphModel>
  </diagram>
</mxfile>
